<svg xmlns="http://www.w3.org/2000/svg" width="800" height="800" viewBox="0 0 32 32"><rect width="100%" height="100%" fill="#fff" rx="15%"/><defs><linearGradient id="a" x1="72.724%" x2="27.269%" y1="9.24%" y2="90.753%"><stop offset="30%" stop-color="#3E863D"/><stop offset="50%" stop-color="#55934F"/><stop offset="80%" stop-color="#5AAD45"/></linearGradient><linearGradient id="b" x1="3.994%" x2="97.307%" y1="80.099%" y2="20.906%"><stop offset="57%" stop-color="#3E863D"/><stop offset="72%" stop-color="#619857"/><stop offset="100%" stop-color="#76AC64"/></linearGradient><linearGradient id="c" x1="0%" x2="100%" y1="50%" y2="50%"><stop offset="16%" stop-color="#6BBF47"/><stop offset="38%" stop-color="#79B461"/><stop offset="47%" stop-color="#75AC64"/><stop offset="70%" stop-color="#659E5A"/><stop offset="90%" stop-color="#3E863D"/></linearGradient></defs><g fill="none" fill-rule="evenodd"><path fill="#689F63" fill-rule="nonzero" d="M27.044 13.521h.074c.061 0 .073-.043.073-.067 0-.066-.045-.066-.07-.066h-.076v.133Zm-.09-.21h.164c.057 0 .167 0 .167.127 0 .088-.056.106-.09.117.066.005.07.048.08.109.004.038.01.104.024.126h-.101l-.018-.15c-.007-.028-.016-.041-.05-.041h-.084v.191h-.092v-.478Zm-.197.239Zm.782 0a.427.427 0 1 1-.426-.426c.23.001.426.186.426.427Z"/><path fill="#333" d="M8.313 15.07a.283.283 0 0 0-.142-.245L5.83 13.477a.274.274 0 0 0-.129-.037h-.024a.278.278 0 0 0-.13.037l-2.342 1.348a.285.285 0 0 0-.142.246l.006 3.63c0 .05.026.097.07.122a.134.134 0 0 0 .14 0l1.393-.797a.286.286 0 0 0 .142-.246v-1.696c0-.101.053-.195.14-.245l.594-.341a.281.281 0 0 1 .282 0l.593.34c.087.051.141.145.141.246v1.696c0 .1.054.193.142.245l1.392.797a.138.138 0 0 0 .141 0 .142.142 0 0 0 .07-.122l.005-3.63Zm11.054 1.89a.07.07 0 0 1-.036.062l-.804.463a.07.07 0 0 1-.071 0l-.805-.463a.07.07 0 0 1-.035-.062v-.928c0-.026.013-.05.035-.062l.804-.464a.071.071 0 0 1 .071 0l.805.464a.07.07 0 0 1 .035.062v.928Zm.217-6.88a.142.142 0 0 0-.21.124V13.8a.099.099 0 0 1-.149.086l-.587-.338a.282.282 0 0 0-.283 0l-2.343 1.352a.282.282 0 0 0-.141.245v2.705c0 .101.054.194.141.245l2.343 1.353c.088.05.196.05.283 0l2.344-1.354a.284.284 0 0 0 .141-.245v-6.742a.284.284 0 0 0-.145-.247l-1.394-.779Zm7.803 5.927a.283.283 0 0 0 .14-.244v-.656c0-.101-.053-.194-.14-.245l-2.329-1.352a.283.283 0 0 0-.283 0l-2.343 1.353a.282.282 0 0 0-.142.245v2.704c0 .102.055.196.143.246l2.328 1.327c.086.05.19.05.278.002l1.408-.783a.142.142 0 0 0 0-.246l-2.356-1.353a.14.14 0 0 1-.072-.122v-.848a.14.14 0 0 1 .071-.123l.733-.423a.14.14 0 0 1 .141 0l.734.423c.044.025.071.072.071.122v.667c0 .05.027.098.07.123a.142.142 0 0 0 .143 0l1.405-.817Z"/><path fill="#689F63" d="M24.882 15.88a.054.054 0 0 1 .055 0l.45.26c.016.01.026.028.026.047v.52c0 .019-.01.037-.027.046l-.45.26a.054.054 0 0 1-.054 0l-.449-.26a.054.054 0 0 1-.028-.047v-.52c0-.018.01-.036.027-.046l.45-.26Z"/><g fill-rule="nonzero"><path fill="url(#a)" d="M5.893.09.336 3.297A.67.67 0 0 0 0 3.88v6.42c0 .24.128.46.336.58l5.558 3.21c.207.12.463.12.671 0l5.557-3.21a.672.672 0 0 0 .335-.58v-6.42a.67.67 0 0 0-.336-.582L6.564.09a.676.676 0 0 0-.672 0" transform="translate(9.406 13.781) scale(.4375)"/><path fill="url(#b)" d="M.138 10.706c.054.07.12.13.198.174l4.767 2.753.794.457a.674.674 0 0 0 .519.063l5.861-10.732a.665.665 0 0 0-.156-.124L8.482 1.196 6.56.089a.7.7 0 0 0-.175-.07L.138 10.706Z" transform="translate(9.406 13.781) scale(.4375)"/><path fill="url(#c)" d="M6.162.004a.678.678 0 0 0-.269.086L.352 3.288l5.975 10.884a.667.667 0 0 0 .24-.082l5.556-3.21a.674.674 0 0 0 .325-.459L6.356.015a.698.698 0 0 0-.191-.011" transform="translate(9.406 13.781) scale(.4375)"/></g></g></svg>