<svg width="800" height="800" viewBox="0 0 32 32" xmlns="http://www.w3.org/2000/svg"><rect width="100%" height="100%" rx="15%" fill="#fff"/><g fill="none"><path d="M20.63 21.998c.142-1.183.1-1.356.98-1.165l.224.02c.677.03 1.563-.11 2.084-.351 1.12-.52 1.785-1.388.68-1.16-2.52.52-2.693-.333-2.693-.333 2.66-3.949 3.773-8.961 2.813-10.188-2.62-3.347-7.153-1.764-7.228-1.723l-.025.004a8.982 8.982 0 0 0-1.681-.175c-1.14-.019-2.006.299-2.662.797 0 0-8.088-3.332-7.712 4.19.08 1.6 2.294 12.108 4.934 8.934a49.356 49.356 0 0 1 1.898-2.141 2.448 2.448 0 0 0 1.599.408l.045-.039a1.75 1.75 0 0 0 .018.452c-.68.76-.48.894-1.84 1.173-1.376.284-.568.789-.04.92.64.16 2.12.387 3.12-1.013l-.04.16c.267.214.25 1.534.287 2.478.038.944.1 1.824.293 2.343.193.52.42 1.857 2.207 1.474 1.493-.32 2.635-.78 2.74-5.065" fill="#000"/><path d="M17.309 27.997c-.79 0-1.305-.306-1.618-.601-.472-.446-.659-1.02-.77-1.362l-.05-.143c-.224-.608-.3-1.483-.346-2.61a36.986 36.986 0 0 1-.017-.528c-.004-.135-.008-.305-.015-.482-.281.134-.582.23-.898.284a4.323 4.323 0 0 1-1.781-.092c-.441-.11-.899-.339-1.16-.691-.76.666-1.486.575-1.882.444-.697-.233-1.321-.887-1.908-1.998-.418-.792-.822-1.824-1.201-3.067-.66-2.165-1.08-4.445-1.118-5.193-.117-2.343.514-4.019 1.875-4.98 2.146-1.517 5.4-.625 6.585-.22.797-.48 1.734-.714 2.793-.697.57.01 1.11.06 1.614.149a9.272 9.272 0 0 1 2.749-.387c2.186.026 3.998.878 5.24 2.464.885 1.132.447 3.508.107 4.824-.478 1.85-1.316 3.82-2.345 5.533.28.002.684-.031 1.26-.15 1.136-.235 1.468.374 1.558.647.361 1.093-1.209 1.92-1.698 2.147-.628.291-1.65.469-2.488.43l-.037-.002-.22-.02-.021.184-.021.18c-.057 2.171-.367 3.547-1.005 4.455-.67.953-1.6 1.22-2.419 1.396-.28.06-.533.086-.763.086zm-1.664-7.905c.51.409.555 1.177.595 2.613.005.179.01.349.016.507.02.48.065 1.603.24 2.077.025.067.048.135.071.208.196.6.295.9 1.142.72.712-.153 1.077-.29 1.364-.697.416-.593.649-1.785.691-3.543l.866.02-.86-.103.026-.214c.082-.708.141-1.22.614-1.557.38-.271.812-.245 1.157-.183-.379-.286-.483-.621-.511-.759l-.072-.356.202-.3c1.17-1.735 2.133-3.866 2.645-5.848.526-2.036.365-3.117.205-3.322-2.123-2.713-5.804-1.593-6.189-1.465l-.065.035-.326.06-.166-.034a8.166 8.166 0 0 0-1.52-.158c-.86-.014-1.555.19-2.124.621l-.395.3-.459-.189c-.98-.4-3.857-1.206-5.375-.13-.843.597-1.226 1.766-1.141 3.476.028.565.412 2.702 1.045 4.774.874 2.865 1.669 3.816 2 3.927.058.02.208-.098.358-.277a48.998 48.998 0 0 1 1.936-2.185l.5-.527.607.402c.244.163.514.255.79.272l1.446-1.233-.21 2.138a.88.88 0 0 0 .013.234l.063.405-.274.306-.031.035.794.367.332-.417z" fill="#000"/><path d="M24.598 19.342c-2.52.52-2.694-.333-2.694-.333 2.662-3.95 3.774-8.962 2.814-10.188-2.619-3.347-7.153-1.764-7.228-1.723l-.025.004a8.983 8.983 0 0 0-1.682-.175c-1.14-.018-2.005.3-2.661.797 0 0-8.088-3.332-7.712 4.19.08 1.6 2.294 12.109 4.934 8.935a48.85 48.85 0 0 1 1.897-2.142 2.448 2.448 0 0 0 1.6.408l.044-.038c-.014.144-.007.285.018.452-.68.76-.48.893-1.84 1.173-1.376.283-.567.788-.04.92.64.16 2.12.387 3.12-1.013l-.04.16c.267.213.454 1.388.423 2.453-.032 1.066-.053 1.797.157 2.368s.42 1.857 2.207 1.474c1.494-.32 2.268-1.15 2.376-2.534.076-.983.249-.838.26-1.717l.139-.416c.16-1.334.025-1.764.945-1.564l.224.02c.677.03 1.564-.11 2.084-.351 1.12-.52 1.785-1.388.68-1.16z" fill="#336791"/><path d="M17.4 27.463c-1.49 0-1.963-1.18-2.156-1.663-.283-.707-.344-3.451-.28-5.702a.289.289 0 1 1 .577.016c-.073 2.596.03 4.948.24 5.472.326.816.821 1.53 2.221 1.23 1.329-.285 1.827-.789 2.049-2.074.17-.987.506-3.792.548-4.346a.288.288 0 1 1 .576.043c-.044.576-.379 3.377-.555 4.401-.262 1.518-.939 2.207-2.497 2.54a3.476 3.476 0 0 1-.724.083zM9.32 21.7c-.142 0-.271-.027-.383-.064-.968-.323-1.89-1.899-2.74-4.685-.647-2.12-1.057-4.334-1.093-5.054-.107-2.133.442-3.642 1.632-4.484 2.355-1.668 6.315-.08 6.482-.012a.289.289 0 0 1-.218.535c-.038-.015-3.836-1.537-5.931-.051-1.018.721-1.485 2.062-1.389 3.984.03.606.414 2.766 1.07 4.913.758 2.488 1.622 4.057 2.37 4.306.117.04.474.158.984-.455a44.394 44.394 0 0 1 1.851-2.086.289.289 0 0 1 .417.4 43.93 43.93 0 0 0-1.824 2.055c-.448.54-.878.698-1.228.698zm12.567-2.434a.288.288 0 0 1-.24-.45c2.69-3.992 3.635-8.815 2.826-9.849-1.018-1.3-2.455-1.98-4.272-2.019a8.028 8.028 0 0 0-2.59.374l-.044.018a.29.29 0 0 1-.247-.52.685.685 0 0 1 .078-.032l-.004.001h.004c.297-.11 1.382-.435 2.727-.42 2.01.021 3.671.797 4.803 2.242.535.684.536 2.26.003 4.324-.543 2.104-1.566 4.365-2.805 6.204a.287.287 0 0 1-.24.127zm.137 1.848c-.46 0-.871-.065-1.118-.212-.253-.152-.301-.359-.308-.468-.069-1.215.601-1.426.943-1.522a3.64 3.64 0 0 0-.185-.245c-.2-.249-.473-.59-.683-1.1-.033-.08-.136-.264-.255-.479-.648-1.162-1.996-3.579-1.13-4.817.4-.573 1.199-.798 2.374-.672-.346-1.054-1.993-4.35-5.901-4.414-1.175-.02-2.14.341-2.864 1.073-1.621 1.638-1.563 4.601-1.562 4.63a.289.289 0 1 1-.577.016c-.004-.132-.064-3.241 1.729-5.053.84-.847 1.944-1.266 3.284-1.244 2.5.041 4.11 1.312 5.02 2.371.99 1.155 1.477 2.428 1.517 2.853.03.316-.197.379-.243.388l-.104.003c-1.154-.185-1.894-.057-2.2.38-.659.942.616 3.228 1.16 4.205.14.249.24.43.286.54.179.434.412.725.6.96.164.205.307.384.358.594.024.041.36.54 2.357.127.5-.103.8-.015.892.262.18.546-.832 1.183-1.392 1.443-.503.233-1.304.381-1.998.381zm-.85-.728c.063.064.38.174 1.037.146.583-.025 1.199-.152 1.568-.323.472-.22.787-.465.95-.632l-.09.017c-1.276.263-2.18.228-2.684-.105a1.115 1.115 0 0 1-.097-.072c-.055.021-.106.035-.142.045-.286.08-.581.164-.542.924zM12.928 22c-.318 0-.651-.043-.992-.129-.353-.088-.949-.354-.94-.79.01-.49.723-.637.992-.693.969-.2 1.032-.28 1.335-.664.088-.112.198-.252.348-.419.222-.249.465-.375.722-.375.18 0 .326.06.423.101.31.128.567.438.673.809.096.334.05.656-.128.906-.586.82-1.428 1.254-2.433 1.254zm-1.308-.895c.087.068.262.158.456.206.295.074.582.111.852.111.823 0 1.483-.34 1.963-1.012.1-.14.07-.318.043-.412-.056-.196-.195-.374-.339-.434a.563.563 0 0 0-.202-.056c-.031 0-.128 0-.292.182-.138.154-.237.28-.324.392-.378.478-.55.641-1.673.872-.274.056-.414.113-.484.151zm2.221-1.332a.289.289 0 0 1-.285-.245 1.487 1.487 0 0 1-.015-.145 2.823 2.823 0 0 1-1.984-.891 3.23 3.23 0 0 1-.85-2.702c.153-1.093.096-2.057.065-2.575a4.855 4.855 0 0 1-.014-.32c0-.092.002-.334.812-.745.288-.146.866-.4 1.497-.466 1.046-.108 1.735.357 1.941 1.311.557 2.576.044 3.715-.33 4.546a6.95 6.95 0 0 0-.188.443l-.047.125c-.198.53-.369.989-.316 1.331a.289.289 0 0 1-.242.33l-.044.003zm-2.504-6.799.011.207c.032.538.091 1.54-.07 2.69-.115.83.138 1.64.696 2.221.441.46 1.022.714 1.618.714h.013c.066-.281.177-.578.297-.899l.046-.124c.06-.16.13-.315.203-.479.36-.8.81-1.797.292-4.187-.102-.473-.35-.747-.758-.837-.837-.185-2.086.445-2.348.694zm1.743-.122c-.015.102.187.375.45.411.262.037.486-.176.5-.279.015-.102-.186-.214-.45-.25-.262-.037-.486.016-.5.118zm.51.511-.074-.005a.694.694 0 0 1-.44-.274c-.04-.053-.104-.155-.091-.245.018-.134.18-.213.434-.213.057 0 .116.004.175.012.139.02.267.06.362.112.165.092.177.195.17.248-.02.147-.255.365-.536.365zm-.414-.494c.008.063.164.27.367.299l.047.003c.188 0 .328-.147.344-.196-.017-.033-.138-.115-.366-.146a.951.951 0 0 0-.149-.011c-.147 0-.225.033-.243.051zm7.892-.225c.014.102-.187.374-.45.41-.262.037-.487-.176-.501-.278-.014-.102.187-.215.45-.25.262-.038.487.016.501.118zm-.51.463c-.253 0-.47-.197-.489-.324-.02-.153.231-.27.491-.306.057-.008.114-.012.168-.012.224 0 .373.066.388.172.01.069-.043.175-.134.27a.633.633 0 0 1-.357.195l-.067.005zm.17-.545c-.05 0-.102.003-.154.01-.261.037-.417.142-.41.198.01.061.176.24.394.24l.054-.003a.536.536 0 0 0 .3-.166c.08-.084.112-.164.108-.19-.005-.037-.1-.09-.291-.09zm.718 5.944a.288.288 0 0 1-.24-.45c.616-.918.503-1.855.394-2.76-.046-.386-.094-.785-.082-1.168.013-.394.063-.72.111-1.034.058-.372.112-.724.09-1.142a.289.289 0 1 1 .576-.031c.026.477-.035.876-.095 1.26a7.59 7.59 0 0 0-.104.965c-.011.34.032.7.078 1.08.115.964.247 2.056-.487 3.152a.289.289 0 0 1-.24.128z" fill="#FFF"/></g></svg>