<svg width="447" height="30" viewBox="0 0 447 30" fill="none" xmlns="http://www.w3.org/2000/svg">
<path d="M6.67164 0H0V30H6.67164V0Z" fill="white"/>
<path d="M20.0149 0H13.3433V30H20.0149V0Z" fill="white"/>
<path d="M46.7015 0H33.3582V30H46.7015V0Z" fill="white"/>
<path d="M66.7164 0H60.0447V30H66.7164V0Z" fill="white"/>
<path d="M86.7313 0H80.0597V30H86.7313V0Z" fill="white"/>
<path d="M113.418 0H100.075V30H113.418V0Z" fill="white"/>
<path d="M146.776 0H120.09V30H146.776V0Z" fill="white"/>
<path d="M160.119 0H153.448V30H160.119V0Z" fill="white"/>
<path d="M173.463 0H166.791V30H173.463V0Z" fill="white"/>
<path d="M206.821 0H193.478V30H206.821V0Z" fill="white"/>
<path d="M219.754 0H213.083V30H219.754V0Z" fill="white"/>
<path d="M233.507 0H226.836V30H233.507V0Z" fill="white"/>
<path d="M246.851 0H240.179V30H246.851V0Z" fill="white"/>
<path d="M280.209 0H260.194V30H280.209V0Z" fill="white"/>
<path d="M293.552 0H286.881V30H293.552V0Z" fill="white"/>
<path d="M306.896 0H300.224V30H306.896V0Z" fill="white"/>
<path d="M340.254 0H333.582V30H340.254V0Z" fill="white"/>
<path d="M366.94 0H360.269V30H366.94V0Z" fill="white"/>
<path d="M400.299 0H380.284V30H400.299V0Z" fill="white"/>
<path d="M420.313 0H413.642V30H420.313V0Z" fill="white"/>
<path d="M433.657 0H426.985V30H433.657V0Z" fill="white"/>
<path d="M447 0H440.328V30H447V0Z" fill="white"/>
</svg>
