<svg width="1728" height="561" viewBox="0 0 1728 561" fill="none" xmlns="http://www.w3.org/2000/svg">
<path d="M-62 4L39.6096 69.1516C141.219 134.303 344.445 264.606 547.664 326.584C750.89 388.562 954.11 382.205 1157.34 344.07C1360.55 305.925 1563.78 236.003 1665.39 201.052L1767 166.091" stroke="black" stroke-width="8"/>
<path d="M-62 557L39.6096 496.619C141.219 436.228 344.445 315.466 547.664 236.003C750.89 156.549 954.11 118.414 1157.34 158.146C1360.55 197.868 1563.78 315.466 1665.39 374.26L1767 433.054" stroke="black" stroke-width="8"/>
<path d="M-62 404.45L39.6096 420.338C141.219 436.227 344.445 468.014 547.664 488.674C750.89 509.333 954.11 518.864 1157.34 488.674C1360.55 458.483 1563.78 388.561 1665.39 353.6L1767 318.639" stroke="black" stroke-width="8"/>
</svg>
