<svg width="472" height="30" viewBox="0 0 472 30" fill="none" xmlns="http://www.w3.org/2000/svg">
<g clip-path="url(#clip0_1056_891)">
<path d="M7.04478 0H0V30H7.04478V0Z" fill="white"/>
<path d="M21.1343 0H14.0895V30H21.1343V0Z" fill="white"/>
<path d="M49.3134 0H35.2239V30H49.3134V0Z" fill="white"/>
<path d="M70.4477 0H63.403V30H70.4477V0Z" fill="white"/>
<path d="M98.6269 0H91.5821V30H98.6269V0Z" fill="white"/>
<path d="M119.761 0H105.672V30H119.761V0Z" fill="white"/>
<path d="M133.851 0H126.806V30H133.851V0Z" fill="white"/>
<path d="M169.075 0H154.985V30H169.075V0Z" fill="white"/>
<path d="M197.254 0H190.209V30H197.254V0Z" fill="white"/>
<path d="M218.388 0H204.298V30H218.388V0Z" fill="white"/>
<path d="M232.478 0H225.433V30H232.478V0Z" fill="white"/>
<path d="M246.567 0H239.522V30H246.567V0Z" fill="white"/>
<path d="M267.701 0H253.612V30H267.701V0Z" fill="white"/>
<path d="M295.881 0H281.791V30H295.881V0Z" fill="white"/>
<path d="M324.06 0H302.925V30H324.06V0Z" fill="white"/>
<path d="M345.194 0H338.149V30H345.194V0Z" fill="white"/>
<path d="M366.328 0H352.239V30H366.328V0Z" fill="white"/>
<path d="M394.508 0H380.418V30H394.508V0Z" fill="white"/>
<path d="M415.642 0H401.552V30H415.642V0Z" fill="white"/>
<path d="M443.821 0H429.731V30H443.821V0Z" fill="white"/>
<path d="M457.91 0H450.866V30H457.91V0Z" fill="white"/>
<path d="M472 0H464.955V30H472V0Z" fill="white"/>
</g>
<defs>
<clipPath id="clip0_1056_891">
<rect width="472" height="30" fill="white"/>
</clipPath>
</defs>
</svg>
