<svg width="358" height="358" viewBox="0 0 358 358" fill="none" xmlns="http://www.w3.org/2000/svg">
<path fill-rule="evenodd" clip-rule="evenodd" d="M128.936 0.211182V14.514H157.542V28.8167H128.936V43.1195H114.633V71.7251H128.936V86.0279H114.633V100.331H128.936V128.936H143.239V143.239H128.936V157.542H143.239V171.845H128.936V186.147H143.239V200.45H114.633V229.056H86.0278V214.753H100.331V200.45H86.0278V186.147H100.331V171.845H86.0278V186.147H71.725V229.056H43.1195V214.753H57.4222V171.845H71.725V157.542H114.633V114.633H71.725V128.936H57.4222V143.239H71.725V157.542H57.4222V171.845H28.8167V186.147H14.5139V171.845H0.211121V243.358H14.5139V200.45H43.1195V214.753H28.8167V243.358H71.725V229.056H86.0278V243.358H114.633V286.267H143.239V357.781H200.45V329.175H214.753V314.872H200.45V300.57H171.844V271.964H200.45V286.267H214.753V300.57H243.358V314.872H229.056V357.781H243.358V343.478H257.661V357.781H271.964V343.478H286.267V357.781H314.872V329.175H329.175V314.872H343.478V357.781H357.781V286.267H343.478V300.57H329.175V286.267H314.872V271.964H300.569V243.358H329.175V257.661H343.478V271.964H357.781V257.661H343.478V243.358H357.781V229.056H343.478V214.753H357.781V200.45H343.478V186.147H357.781V171.845H343.478V157.542H357.781V143.239H343.478V128.936H314.872V114.633H286.267V128.936H271.964V143.239H257.661V157.542H229.056V128.936H243.358V86.0279H229.056V114.633H200.45V100.331H214.753V71.7251H200.45V57.4223H229.056V71.7251H243.358V14.514H229.056V43.1195H200.45V57.4223H171.844V28.8167H186.147V14.514H200.45V0.211182H186.147V14.514H171.844V0.211182H128.936ZM128.936 43.1195V71.7251H143.239V43.1195H128.936ZM157.542 57.4223V100.331H143.239V86.0279H128.936V100.331H143.239V114.633H157.542V143.239H143.239V157.542H157.542V143.239H186.147V157.542H171.844V171.845H157.542V229.056H114.633V243.358H128.936V271.964H171.844V257.661H214.753V271.964H229.056V243.358H200.45V229.056H186.147V243.358H171.844V214.753H186.147V200.45H171.844V186.147H186.147V171.845H200.45V157.542H214.753V143.239H200.45V114.633H186.147V128.936H171.844V86.0279H186.147V100.331H200.45V86.0279H186.147V71.7251H171.844V57.4223H157.542ZM0.211121 114.633V128.936H14.5139V143.239H28.8167V157.542H43.1195V143.239H28.8167V114.633H0.211121ZM86.0278 128.936V143.239H100.331V128.936H86.0278ZM271.964 143.239V157.542H257.661V171.845H243.358V186.147H229.056V171.845H214.753V186.147H229.056V200.45H243.358V214.753H229.056V229.056H257.661V214.753H271.964V186.147H257.661V171.845H271.964V157.542H286.267V214.753H300.569V171.845H314.872V186.147H343.478V171.845H329.175V157.542H314.872V143.239H271.964ZM243.358 243.358V286.267H286.267V243.358H243.358ZM257.661 257.661V271.964H271.964V257.661H257.661ZM300.569 286.267V300.57H271.964V314.872H257.661V329.175H271.964V314.872H286.267V343.478H300.569V314.872H314.872V286.267H300.569ZM157.542 300.57V343.478H171.844V329.175H186.147V314.872H171.844V300.57H157.542ZM114.633 329.175V357.781H128.936V329.175H114.633ZM0.211121 0.211182V100.331H100.331V0.211182H0.211121ZM14.5139 14.514V86.0279H86.0278V14.514H14.5139ZM28.8167 28.8167V71.7251H71.725V28.8167H28.8167ZM257.661 0.211182V100.331H357.781V0.211182H257.661ZM271.964 14.514V86.0279H343.478V14.514H271.964ZM286.267 28.8167V71.7251H329.175V28.8167H286.267ZM0.211121 257.661V357.781H100.331V257.661H0.211121ZM14.5139 271.964V343.478H86.0278V271.964H14.5139ZM28.8167 286.267V329.175H71.725V286.267H28.8167Z" fill="white"/>
</svg>
