<svg width="83" height="121" viewBox="0 0 83 121" fill="none" xmlns="http://www.w3.org/2000/svg">
<path d="M5.54705 68.811C18.1324 82.398 31.94 95.6976 42.7301 110.873C44.4609 113.307 46.3415 116.516 48.8081 118.332C52.2468 120.862 62.1676 94.9409 63.7735 91.462C65.1588 88.4612 85.8846 52.2258 77.627 53.9305C72.9627 54.8934 52.6189 59.4123 51.5853 54.4054C48.2271 38.1388 46.4863 21.7927 43.124 5.50627C42.0902 0.498405 25.1735 4.3108 20.2161 5.33421C16.2627 6.15038 12.0921 5.55077 13.1002 10.4338C15.3167 21.1704 17.5332 31.9069 19.7497 42.6435C20.0881 44.2827 26.8926 66.6626 24.5055 67.4385C20.1794 68.8445 7.52348 67.1155 3.33312 66.0005" stroke="#0679FF" stroke-width="5" stroke-linecap="round"/>
</svg>
