<svg width="193" height="106" viewBox="0 0 193 106" fill="none" xmlns="http://www.w3.org/2000/svg">
<path d="M188.708 66.7617C194.372 33.7248 187.387 4.24768 147.88 2.62004C117.446 1.36622 87.1386 32.8709 98.5673 64.0816C101.306 71.5596 112.123 74.1808 119.238 72.8926C130.495 70.8546 135.843 62.4225 136.512 51.3108C137.728 31.1254 123.433 5.75064 101.299 4.80474C66.6604 3.32448 40.224 30.0701 26.7007 59.7511C24.007 65.6633 11.5045 112.691 26.5286 89.8838C29.2553 85.7446 36.9284 73.0368 33.9468 76.9964C29.0033 83.5616 26.4993 87.4563 23.8191 95.4441C23.287 97.0299 21.6654 105.707 19.1127 101.647C13.8858 93.3346 8.04287 85.4645 2.9986 77.0195" stroke="#0679FF" stroke-width="5" stroke-linecap="round"/>
</svg>
