<svg width="157" height="139" viewBox="0 0 157 139" fill="none" xmlns="http://www.w3.org/2000/svg">
<path d="M117.326 134.994C127.188 135.352 146.849 139.093 153.607 128.102C157.008 122.571 148.987 115.618 145.398 112.761C139.046 107.707 131.098 102.562 126.079 96.1455C120.715 89.2871 128.815 87.3354 134.303 84.8866C153.126 76.489 151.482 67.2919 134.48 57.3996C106.395 41.0595 72.844 34.2856 42.5789 23.1261C31.9561 19.2091 21.0066 16.7749 10.6144 12.2927C6.97425 10.7227 5.04894 11.8514 7.91245 15.219C9.95788 17.6246 24.806 33.3221 16.6908 24.2419C13.2575 20.4004 5.34556 17.1537 3.01228 12.8242C1.48337 9.98729 24.3346 7.12126 28.7728 3.26263" stroke="#0679FF" stroke-width="5" stroke-linecap="round"/>
</svg>
