<svg width="222" height="60" viewBox="0 0 222 60" fill="none" xmlns="http://www.w3.org/2000/svg">
<path d="M219.334 2.87637C174.343 9.48315 129.234 13.6391 84.4993 21.867C58.7849 26.5965 -18.1056 40.7814 7.98882 39.1447C50.8796 36.4545 93.8468 27.2071 136.604 22.4692C153.171 20.6335 169.72 19.3635 186.343 18.2039C192.74 17.7577 197.901 18.1926 187.839 19.7335C142.929 26.6108 97.6154 30.4252 52.666 37.1185C47.8693 37.8328 33.805 40.6491 38.6425 40.9924C56.3741 42.2507 74.7139 40.3566 92.3827 39.4061C113.659 38.2615 135.017 35.8481 156.335 35.7541C163.993 35.7203 173.923 34.1227 181.403 35.7594C194.641 38.6557 155.364 43.4278 142.054 45.97C119.902 50.2008 97.5944 53.5659 75.3629 57.3244" stroke="#0679FF" stroke-width="5" stroke-linecap="round"/>
</svg>
